HIERARCHY
ROOT Hips
{
	OFFSET 0.00000 0.00000 0.00000
	CHANNELS 6 Xposition Yposition Zposition Zrotation Yrotation Xrotation 
	JOINT LHipJoint
	{
		OFFSET 0 0 0
		CHANNELS 3 Zrotation Yrotation Xrotation
		JOINT LeftHip
		{
			OFFSET 1.84395 -1.68683 0.74144
			CHANNELS 3 Zrotation Yrotation Xrotation
			JOINT LeftKnee
			{
				OFFSET 2.27037 -6.23779 0.00000
				CHANNELS 3 Zrotation Yrotation Xrotation
				JOINT LeftAnkle
				{
					OFFSET 2.56918 -7.05877 0.00000
					CHANNELS 3 Zrotation Yrotation Xrotation
					JOINT LeftToe
					{
						OFFSET 0.22276 -0.61202 1.71784
						CHANNELS 3 Zrotation Yrotation Xrotation
						End Site
						{
							OFFSET 0.00000 -0.00000 0.91613
						}
					}
				}
			}
		}
	}
	JOINT RHipJoint
	{
		OFFSET 0 0 0
		CHANNELS 3 Zrotation Yrotation Xrotation
		JOINT RightHip
		{
			OFFSET -1.76833 -1.68684 0.74144
			CHANNELS 3 Zrotation Yrotation Xrotation
			JOINT RightKnee
			{
				OFFSET -2.49360 -6.85110 0.00000
				CHANNELS 3 Zrotation Yrotation Xrotation
				JOINT RightAnkle
				{
					OFFSET -2.55538 -7.02085 0.00000
					CHANNELS 3 Zrotation Yrotation Xrotation
					JOINT RightToe
					{
						OFFSET -0.21516 -0.59115 1.68050
						CHANNELS 3 Zrotation Yrotation Xrotation
						End Site
						{
							OFFSET -0.00000 -0.00000 0.89604
						}
					}
				}
			}
		}
	}
	JOINT lowerback
	{
		OFFSET 0 0 0
		CHANNELS 3 Zrotation Yrotation Xrotation
		JOINT Chest
		{
			OFFSET 0.06382 1.72312 -0.19613
			CHANNELS 3 Zrotation Yrotation Xrotation
			JOINT Chest2
			{
				OFFSET -0.00055 1.73507 0.23859
				CHANNELS 3 Zrotation Yrotation Xrotation
				JOINT lowerneck
				{
					OFFSET 0 0 0
					CHANNELS 3 Zrotation Yrotation Xrotation
					JOINT Neck
					{
						OFFSET 0.03638 1.65562 0.09633
						CHANNELS 3 Zrotation Yrotation Xrotation
						JOINT Head
						{
							OFFSET 0.06388 1.62807 -0.32386
							CHANNELS 3 Zrotation Yrotation Xrotation
							End Site
							{
								OFFSET 0.00995 1.67644 -0.12021
							}
						}
					}
				}
				JOINT LeftCollar
				{
					OFFSET 0 0 0
					CHANNELS 3 Zrotation Yrotation Xrotation
					JOINT LeftShoulder
					{
						OFFSET 3.09648 1.42991 0.28122
CHANNELS 3 Zrotation Xrotation Yrotation
						JOINT LeftElbow
						{
OFFSET 0 -5.118780 -0.000000
CHANNELS 3 Zrotation Xrotation Yrotation
							JOINT LeftWrist
							{
OFFSET 0 -3.599710 0.000000
CHANNELS 3 Zrotation Xrotation Yrotation
								JOINT lhand
								{
									OFFSET 0 0 0
CHANNELS 3 Zrotation Xrotation Yrotation
									JOINT LFingers
									{
OFFSET 0 -0.628770 0.000000
CHANNELS 3 Zrotation Xrotation Yrotation
										End Site
										{
OFFSET 0 -0.506930 0.000000
										}
									}
								}
								JOINT LThumb
								{
OFFSET 0 0.000000 0.000000
CHANNELS 3 Zrotation Xrotation Yrotation
									End Site
									{
OFFSET 0 -0.514670 0.514670
									}
								}
							}
						}
					}
				}
				JOINT RightCollar
				{
					OFFSET 0 0 0
					CHANNELS 3 Zrotation Yrotation Xrotation
					JOINT RightShoulder
					{
						OFFSET -3.33565 1.14597 0.05047
CHANNELS 3 Zrotation Xrotation Yrotation
						JOINT RightElbow
						{
OFFSET 0 -5.490200 0.000000
CHANNELS 3 Zrotation Xrotation Yrotation
							JOINT RightWrist
							{
OFFSET 0 -3.206590 -0.000000
CHANNELS 3 Zrotation Xrotation Yrotation
								JOINT rhand
								{
									OFFSET 0 0 0
CHANNELS 3 Zrotation Xrotation Yrotation
									JOINT RFingers
									{
OFFSET 0 -0.691880 0.000000
CHANNELS 3 Zrotation Xrotation Yrotation
										End Site
										{
OFFSET 0 -0.557810 0.000000
										}
									}
								}
								JOINT RThumb
								{
OFFSET 0 0.000000 0.000000
CHANNELS 3 Zrotation Xrotation Yrotation
									End Site
									{
OFFSET 0 -0.566330 0.566330
									}
								}
							}
						}
					}
				}
			}
		}
	}
}
MOTION
Frames: 8
Frame Time: 0.008333333333333333
0.053600 17.485200 8.062100 -7.971500 0.303200 10.960000 0.000000 0.000000 0.000000 -20.908600 -45.514100 25.172000 0.064500 -1.638500 -4.507600 -5.672400 43.809800 -43.678400 0.521800 4.629600 12.855000 0.000000 0.000000 0.000000 26.176900 25.525300 4.099200 -0.011600 -0.695200 1.910600 1.184900 -22.065700 -20.716400 -2.245800 -9.360300 26.929000 3.696700 0.983800 -0.967500 2.355900 1.781900 -11.758600 0.326500 0.650400 -12.070200 -11.966900 -12.447900 1.866000 10.649400 -18.220900 14.078100 4.102800 -9.073000 6.035400 -0.000000 -0.000000 0.000000 -4.649000 12.990900 -9.312700 10.858800 -18.071500 1.731900 7.882400 40.422800 15.797500 0.000000 0.000000 0.000000 -7.125000 0.000000 0.000000 -13.254600 14.330000 -9.833200 -0.000000 -0.000000 0.000000 1.638000 13.338300 6.610600 -12.996700 -21.282400 -2.452100 9.139200 38.672500 33.738700 0.000000 0.000000 0.000000 7.125000 0.000000 -0.000000 45.671200 57.587500 -16.304900
0.045229 17.500315 8.094915 -7.223558 0.439861 11.674031 0.000000 0.000000 0.000000 -21.590789 -46.603722 24.880394 0.059700 -1.576729 -4.337287 -5.932260 44.394055 -44.128434 0.501955 4.541754 12.606126 0.000000 0.000000 0.000000 25.046280 25.946478 3.646487 -0.003915 -0.402439 1.105757 1.380248 -23.224265 -21.115222 -0.057735 -1.549551 4.262400 2.677864 0.847248 -2.110907 2.296557 1.484286 -11.910837 0.869266 0.610988 -11.567762 -11.832445 -12.474218 1.864271 10.384506 -18.214878 14.051332 4.004512 -9.076737 5.989610 0.000000 0.000000 0.000000 -4.632806 13.222831 -14.062645 10.398239 -17.360102 1.591689 14.926722 28.549869 14.083627 0.000000 0.000000 0.000000 -7.125000 0.000000 0.000000 -8.542859 15.533106 -6.011231 0.000000 0.000000 0.000000 1.179670 13.167957 7.712790 -12.595940 -20.692417 -2.308522 8.699405 38.345957 33.529800 0.000000 0.000000 0.000000 7.125000 0.000000 0.000000 45.059193 57.530474 -15.955496
0.047316 17.499958 8.098178 -7.300505 0.467532 11.680889 0.000000 0.000000 0.000000 -21.512219 -46.618924 24.911466 0.060768 -1.590311 -4.374744 -5.912499 44.383323 -44.180333 0.509903 4.577121 12.706285 0.000000 0.000000 0.000000 25.130179 25.929067 3.646019 -0.003871 -0.400290 1.099944 1.372627 -23.198712 -21.146913 -0.085021 -1.879794 5.173673 2.832385 0.844914 -2.022237 2.319512 1.493250 -11.878776 0.806185 0.601058 -11.582301 -11.928007 -12.513057 1.552978 10.487318 -18.270006 14.213066 4.016912 -9.088709 6.117841 0.000000 0.000000 0.000000 -4.576761 13.210723 -14.540886 10.641725 -17.737050 1.665119 13.970521 30.031735 11.964087 0.000000 0.000000 0.000000 -7.125000 0.000000 0.000000 -9.215144 17.755993 -6.044852 0.000000 0.000000 0.000000 1.170472 13.051768 7.990329 -12.621001 -20.729438 -2.317389 8.834481 37.897311 33.664029 0.000000 0.000000 0.000000 7.125000 0.000000 0.000000 45.319872 57.599602 -16.155202
0.045477 17.500000 8.105949 -7.439368 0.543141 11.717499 0.000000 0.000000 0.000000 -21.405371 -46.755486 24.993054 0.059936 -1.579926 -4.345983 -5.900329 44.422311 -44.329716 0.503844 4.550174 12.629923 0.000000 0.000000 0.000000 25.312343 25.920062 3.645512 -0.003944 -0.406969 1.118270 1.371352 -23.197612 -21.160170 -0.074160 -1.756781 4.833970 2.989941 0.866266 -1.999731 2.314421 1.530619 -11.885089 0.710064 0.603161 -11.600624 -12.199469 -12.489215 1.924150 11.045622 -18.327231 13.926225 4.251626 -9.119891 6.049306 0.000000 0.000000 0.000000 -4.488101 13.281219 -14.594757 10.681027 -17.797678 1.677141 13.696913 29.930759 11.988940 0.000000 0.000000 0.000000 -7.125000 0.000000 0.000000 -9.404957 17.748366 -6.174328 0.000000 0.000000 0.000000 1.246297 13.055465 7.858793 -12.647046 -20.767881 -2.326649 8.315267 38.025089 33.972633 0.000000 0.000000 0.000000 7.125000 0.000000 0.000000 45.176267 57.940852 -16.477609
0.044987 17.500151 8.119894 -7.358565 0.444555 11.782669 0.000000 0.000000 0.000000 -21.896575 -47.124468 25.499079 0.058520 -1.560716 -4.293022 -5.636894 44.435035 -45.385928 0.566596 4.820810 13.398186 0.000000 0.000000 0.000000 25.199949 25.946113 3.602520 -0.004016 -0.410868 1.128893 1.371615 -23.180082 -21.112148 -0.082462 -1.851992 5.096747 2.935087 0.876634 -2.039713 2.294321 1.537966 -11.886103 0.718710 0.611044 -11.577418 -12.451147 -12.459815 1.729162 11.246509 -18.320025 14.154754 4.330271 -9.108061 6.195721 0.000000 0.000000 0.000000 -4.516888 13.209881 -14.259327 10.653567 -17.755328 1.668779 13.850047 30.092504 12.078119 0.000000 0.000000 0.000000 -7.125000 0.000000 0.000000 -9.297040 17.648356 -6.122302 0.000000 0.000000 0.000000 1.191299 13.026168 7.797325 -12.609708 -20.712712 -2.313413 8.108257 38.214059 34.102703 0.000000 0.000000 0.000000 7.125000 0.000000 0.000000 45.126933 58.082405 -16.614812
0.041618 17.501173 8.136181 -7.401386 0.462807 11.769520 0.000000 0.000000 0.000000 -21.575567 -46.715527 25.152037 0.060163 -1.582485 -4.353092 -5.831669 44.419330 -44.594306 0.511125 4.582342 12.721023 0.000000 0.000000 0.000000 25.281787 25.899372 3.664205 -0.004000 -0.406345 1.116490 1.355370 -23.133880 -21.200143 -0.084281 -1.872926 5.154654 3.226345 0.997989 -1.431885 2.022963 1.744189 -12.361459 0.241125 0.651761 -12.496510 -12.365076 -12.500734 2.031872 11.125666 -18.451560 14.647753 4.279787 -9.182208 6.297887 0.000000 0.000000 0.000000 -4.141328 14.118068 -14.991061 10.772181 -17.938180 1.705122 13.644568 29.771585 11.982532 0.000000 0.000000 0.000000 -7.125000 0.000000 0.000000 -9.441436 17.758267 -6.196844 0.000000 0.000000 0.000000 1.674784 13.940926 7.013327 -12.657530 -20.783351 -2.330361 7.919870 38.606437 33.878181 0.000000 0.000000 0.000000 7.125000 0.000000 0.000000 44.719548 57.959121 -16.283224
0.044174 17.500310 8.150166 -7.313939 0.430657 11.780731 0.000000 0.000000 0.000000 -21.893457 -46.843552 25.393399 0.058523 -1.561049 -4.294090 -5.781504 44.459614 -44.892720 0.529746 4.664172 12.953088 0.000000 0.000000 0.000000 25.194022 25.877095 3.736471 -0.003600 -0.389197 1.069404 1.356316 -23.139790 -21.203339 -0.082703 -1.854640 5.104055 3.135747 1.010089 -1.440893 1.956636 1.749750 -12.391701 0.219193 0.659127 -12.525755 -12.195881 -12.552170 2.092846 10.854996 -18.467800 14.472110 4.178884 -9.200044 6.192718 0.000000 0.000000 0.000000 -4.197406 14.013095 -14.800217 10.720821 -17.859077 1.689273 13.643009 29.981130 12.122112 0.000000 0.000000 0.000000 -7.125000 0.000000 0.000000 -9.439946 17.617101 -6.225529 0.000000 0.000000 0.000000 1.681527 13.949379 7.299295 -12.688067 -20.828505 -2.341207 7.941981 38.216341 34.183138 0.000000 0.000000 0.000000 7.125000 0.000000 0.000000 45.062209 58.178714 -16.692842
0.046105 17.499210 8.160520 -7.452738 0.496173 11.792495 0.000000 0.000000 0.000000 -21.353721 -46.454226 24.884453 0.058493 -1.560520 -4.292578 -5.790430 44.212164 -44.229948 0.490407 4.490227 12.460123 0.000000 0.000000 0.000000 25.354253 25.854461 3.731959 -0.003703 -0.392875 1.079581 1.362758 -23.190510 -21.249992 -0.068488 -1.687971 4.643949 3.226397 0.978647 -1.491690 1.990226 1.712382 -12.388062 0.209543 0.634068 -12.490486 -12.451305 -12.504475 2.232044 11.153262 -18.435379 14.244705 4.323604 -9.190615 6.145654 0.000000 0.000000 0.000000 -4.285025 14.024594 -14.770444 10.791561 -17.968033 1.711027 13.616780 29.979572 11.952076 0.000000 0.000000 0.000000 -7.125000 0.000000 0.000000 -9.461259 17.790967 -6.203389 0.000000 0.000000 0.000000 1.770284 13.830989 7.171868 -12.679307 -20.815610 -2.338102 8.054965 38.324433 34.214465 0.000000 0.000000 0.000000 7.125000 0.000000 0.000000 45.198008 58.176411 -16.755147
